<svg xmlns:dc="http://purl.org/dc/elements/1.1/" xmlns:cc="http://creativecommons.org/ns#" xmlns:rdf="http://www.w3.org/1999/02/22-rdf-syntax-ns#" xmlns:svg="http://www.w3.org/2000/svg" xmlns="http://www.w3.org/2000/svg" xmlns:sodipodi="http://sodipodi.sourceforge.net/DTD/sodipodi-0.dtd" xmlns:inkscape="http://www.inkscape.org/namespaces/inkscape" viewBox="0 0 1279.0172 1598.999125" version="1.1" x="0px" y="0px"><g transform="translate(411.05307,-5582.7789)"><path style="" d="m 184.70556,6861.5147 c -20.58946,-1.755 -45.75489,-4.8152 -61.8496,-7.521 -232.28312,-39.0512 -423.52941,-201.1876 -500.39243,-424.2268 -14.62736,-42.4453 -25.15494,-89.6249 -31.09526,-139.3541 -3.22862,-27.0284 -3.22862,-109.2217 0,-136.2501 17.70722,-148.2356 78.15105,-276.1044 179.53784,-379.8118 104.13727,-106.5209 236.6947165,-170.9064 389.42445,-189.1505 27.02833,-3.2286 109.22168,-3.2286 136.25001,0 152.72974,18.2441 285.28719,82.6296 389.42446,189.1505 101.3868,103.7074 161.83059,231.5762 179.53784,379.8118 3.22863,27.0284 3.22863,109.2217 0,136.2501 -17.70725,148.2356 -78.15104,276.1044 -179.53784,379.8118 -103.93383,106.3128 -236.99799,171.0211 -388.79946,189.0709 -15.98524,1.9008 -97.39552,3.5066 -112.50001,2.2192 z m 332.3065,-356.1019 c 0.2373,-2.75 0.0335,-18.6407 -0.45303,-35.3125 l -0.88449,-30.3125 -287.16224,0 -287.162243,0 -0.82225,22.7004 c -1.05165,29.0331 -1.04658,46.6586 0.0137,47.7189 0.4598,0.4598 130.25669,0.6942 288.437523,0.5208 l 287.60151,-0.3151 0.43147,-5 z m -0.61864,-259.5671 c 1.03516,-14.5835 1.03516,-32.5324 0,-47.1159 l -0.81219,-11.4421 -287.12566,0 -287.125663,0 -0.81219,11.4421 c -0.4467,6.2931 -0.81217,16.8942 -0.81217,23.5579 0,6.6638 0.36547,17.2649 0.81217,23.558 l 0.81219,11.4421 287.125663,0 287.12566,0 0.81219,-11.4421 z m -1.21087,-242.0684 c 0.34349,-0.5558 1.0255,-16.5871 1.51559,-35.625 l 0.89109,-34.6146 -289.13366,0 -289.133663,0 0.89109,34.6146 c 0.49009,19.0379 1.1721,35.0692 1.51559,35.625 0.81661,1.3213 572.637353,1.3213 573.453963,0 z" fill="#000000"/></g><text x="0" y="1294.1993" fill="#000000" font-size="5px" font-weight="bold" font-family="'Helvetica Neue', Helvetica, Arial-Unicode, Arial, Sans-serif">Created by iconeu</text><text x="0" y="1299.1993" fill="#000000" font-size="5px" font-weight="bold" font-family="'Helvetica Neue', Helvetica, Arial-Unicode, Arial, Sans-serif">from the Noun Project</text></svg>